<svg xmlns="http://www.w3.org/2000/svg" viewBox="0 0 256 256" role="img" aria-labelledby="titulo-chatroom-ai-knowledge desc-chatroom-ai-knowledge">
  <title id="titulo-chatroom-ai-knowledge">Conocimiento de la IA</title>
  <desc id="desc-chatroom-ai-knowledge">Libro abierto con un destello</desc>
  <defs>
    <linearGradient id="marco-chatroom-ai-knowledge" x1="24" y1="18" x2="232" y2="240" gradientUnits="userSpaceOnUse">
      <stop stop-color="#1F2937"/>
      <stop offset="1" stop-color="#111827"/>
    </linearGradient>
    <linearGradient id="marca-chatroom-ai-knowledge" x1="46" y1="38" x2="215" y2="218" gradientUnits="userSpaceOnUse">
      <stop stop-color="#0EA5E9"/>
      <stop offset="1" stop-color="#0369A1"/>
    </linearGradient>
    <filter id="sombra-chatroom-ai-knowledge" x="-20%" y="-20%" width="140%" height="150%">
      <feDropShadow dx="0" dy="7" stdDeviation="7" flood-color="#000" flood-opacity=".28"/>
    </filter>
  </defs>

  <!-- Marco, igual en todos los modulos del repositorio -->
  <rect x="24" y="18" width="208" height="220" rx="25" fill="#0B1220"/>
  <rect x="25.5" y="19.5" width="205" height="217" rx="23.5" fill="url(#marco-chatroom-ai-knowledge)" stroke="#475569" stroke-width="3"/>
  <rect x="38" y="32" width="180" height="180" rx="9" fill="#0A1422" stroke="#334155" stroke-width="2"/>
  <rect x="46" y="40" width="164" height="164" rx="4" fill="url(#marca-chatroom-ai-knowledge)" filter="url(#sombra-chatroom-ai-knowledge)"/>

  <!-- Simbolo propio del modulo -->
  <path d="M62 84c22-10 44-10 66 0v86c-22-10-44-10-66 0z" fill="none" stroke="#fff" stroke-width="9" stroke-linecap="round" stroke-linejoin="round"/>
  <path d="M194 84c-22-10-44-10-66 0v86c22-10 44-10 66 0z" fill="none" stroke="#fff" stroke-width="9" stroke-linecap="round" stroke-linejoin="round"/>
  <path d="M128 84v86" fill="none" stroke="#fff" stroke-width="9" stroke-linecap="round" stroke-linejoin="round"/>
  <path d="M176 52l6 14 14 6-14 6-6 14-6-14-14-6 14-6z" fill="#FDE68A"/>
</svg>
