<svg xmlns="http://www.w3.org/2000/svg" viewBox="0 0 128 128" role="img" aria-labelledby="title desc">
  <title id="title">Centro de mando de marketing</title>
  <desc id="desc">Panel de métricas sociales con tendencia ascendente</desc>
  <defs>
    <linearGradient id="bg" x1="0" y1="0" x2="1" y2="1">
      <stop offset="0" stop-color="#172554"/>
      <stop offset="1" stop-color="#312e81"/>
    </linearGradient>
    <linearGradient id="accent" x1="0" y1="1" x2="1" y2="0">
      <stop offset="0" stop-color="#14b8a6"/>
      <stop offset="1" stop-color="#a855f7"/>
    </linearGradient>
    <filter id="shadow" x="-20%" y="-20%" width="140%" height="140%">
      <feDropShadow dx="0" dy="4" stdDeviation="4" flood-color="#020617" flood-opacity=".32"/>
    </filter>
  </defs>
  <rect width="128" height="128" rx="28" fill="#0f172a"/>
  <rect x="10" y="10" width="108" height="108" rx="22" fill="url(#bg)"/>
  <rect x="24" y="27" width="80" height="72" rx="13" fill="#f8fafc" filter="url(#shadow)"/>
  <path d="M35 84h58" fill="none" stroke="#cbd5e1" stroke-width="3" stroke-linecap="round"/>
  <path d="M39 76V62M54 76V53M69 76V66M84 76V43" fill="none" stroke="url(#accent)" stroke-width="8" stroke-linecap="round"/>
  <path d="M37 48c12-10 23 5 34-2 8-5 12-12 19-15" fill="none" stroke="#0f766e" stroke-width="3.5" stroke-linecap="round" stroke-linejoin="round"/>
  <circle cx="37" cy="48" r="5" fill="#14b8a6" stroke="#f8fafc" stroke-width="2"/>
  <circle cx="71" cy="46" r="5" fill="#6366f1" stroke="#f8fafc" stroke-width="2"/>
  <circle cx="90" cy="31" r="5" fill="#ec4899" stroke="#f8fafc" stroke-width="2"/>
  <circle cx="101" cy="22" r="9" fill="#f59e0b"/>
  <path d="M97 22h8M101 18v8" stroke="#fff" stroke-width="2.5" stroke-linecap="round"/>
</svg>
